<svg width="36" height="36" viewBox="0 0 36 36" fill="none" xmlns="http://www.w3.org/2000/svg">
<path d="M30.0069 10.4995V7.49951H6.00684V28.4995H30.0069V25.4995H18.0069C17.1784 25.4995 16.5069 24.828 16.5069 23.9995V11.9995C16.5069 11.1711 17.1784 10.4995 18.0069 10.4995H30.0069ZM4.50684 4.49951H31.5069C32.3353 4.49951 33.0069 5.17108 33.0069 5.99951V29.9995C33.0069 30.828 32.3353 31.4995 31.5069 31.4995H4.50684C3.67842 31.4995 3.00684 30.828 3.00684 29.9995V5.99951C3.00684 5.17108 3.67842 4.49951 4.50684 4.49951ZM19.5069 13.4995V22.4995H30.0069V13.4995H19.5069ZM22.5069 16.4995H27.0069V19.4995H22.5069V16.4995Z" fill="white"/>
</svg>
