<svg width="36" height="36" viewBox="0 0 36 36" fill="none" xmlns="http://www.w3.org/2000/svg">
<path d="M6 9.21429V28.4503L13.5971 25.1945L22.5972 29.6945L30 26.5218V7.28571L31.9545 6.44805C32.3354 6.28488 32.7762 6.46123 32.9394 6.84196C32.9793 6.93532 33 7.03584 33 7.1374V28.5L22.5 33L13.5 28.5L4.04544 32.5519C3.66471 32.7151 3.22382 32.5387 3.06065 32.1581C3.02063 32.0647 3 31.9641 3 31.8625V10.5L6 9.21429ZM24.3639 16.8639L18 23.228L11.636 16.8639C8.12132 13.3492 8.12132 7.65076 11.636 4.13604C15.1508 0.62132 20.8492 0.62132 24.3639 4.13604C27.8787 7.65076 27.8787 13.3492 24.3639 16.8639ZM18 18.9854L22.2426 14.7426C24.5857 12.3995 24.5857 8.6005 22.2426 6.25735C19.8995 3.91422 16.1005 3.91422 13.7574 6.25735C11.4142 8.6005 11.4142 12.3995 13.7574 14.7426L18 18.9854Z" fill="url(#paint0_linear_6030_338)"/>
<defs>
<linearGradient id="paint0_linear_6030_338" x1="3" y1="17.25" x2="33" y2="17.25" gradientUnits="userSpaceOnUse">
<stop stop-color="#ED6D01"/>
<stop offset="1" stop-color="#FF0054"/>
</linearGradient>
</defs>
</svg>
