<svg width="36" height="36" viewBox="0 0 36 36" fill="none" xmlns="http://www.w3.org/2000/svg">
<path d="M10.9368 31.2363L3 33L4.76372 25.0632C3.63816 22.9584 3 20.5537 3 18C3 9.71572 9.71572 3 18 3C26.2842 3 33 9.71572 33 18C33 26.2842 26.2842 33 18 33C15.4462 33 13.0416 32.3619 10.9368 31.2363ZM11.3711 28.0665L12.3514 28.5907C14.0737 29.5117 15.9983 30 18 30C24.6275 30 30 24.6275 30 18C30 11.3726 24.6275 6 18 6C11.3726 6 6 11.3726 6 18C6 20.0017 6.48823 21.9263 7.40924 23.6486L7.93344 24.6288L6.95124 29.0487L11.3711 28.0665ZM10.5 18H13.5C13.5 20.4853 15.5147 22.5 18 22.5C20.4853 22.5 22.5 20.4853 22.5 18H25.5C25.5 22.1421 22.1421 25.5 18 25.5C13.8579 25.5 10.5 22.1421 10.5 18Z" fill="white"/>
</svg>
