<svg width="36" height="36" viewBox="0 0 36 36" fill="none" xmlns="http://www.w3.org/2000/svg">
<path d="M31.5 31.5H4.5C3.67158 31.5 3 30.8284 3 30V18.7302C3 18.2967 3.18751 17.8843 3.51423 17.5995L9 12.8165V6C9 5.17158 9.67158 4.5 10.5 4.5H31.5C32.3284 4.5 33 5.17158 33 6V30C33 30.8284 32.3284 31.5 31.5 31.5ZM13.5 28.5H18V19.4124L12 14.181L6 19.4124V28.5H10.5V22.5H13.5V28.5ZM21 28.5H30V7.5H12V10.6909C12.3517 10.6909 12.7033 10.8141 12.9858 11.0603L20.4858 17.5995C20.8125 17.8843 21 18.2967 21 18.7302V28.5ZM24 16.5H27V19.5H24V16.5ZM24 22.5H27V25.5H24V22.5ZM24 10.5H27V13.5H24V10.5ZM18 10.5H21V13.5H18V10.5Z" fill="white"/>
</svg>
