<svg width="36" height="36" viewBox="0 0 36 36" fill="none" xmlns="http://www.w3.org/2000/svg">
<path d="M13.5 25.5C13.5 25.5 24 27 28.5 31.5H30C30.8284 31.5 31.5 30.8284 31.5 30V20.9055C32.7939 20.5725 33.75 19.3979 33.75 18C33.75 16.6021 32.7939 15.4275 31.5 15.0945V6C31.5 5.17158 30.8284 4.5 30 4.5H28.5C24 9 13.5 10.5 13.5 10.5H7.5C5.84314 10.5 4.5 11.8431 4.5 13.5V22.5C4.5 24.1569 5.84314 25.5 7.5 25.5H9L10.5 33H13.5V25.5ZM16.5 12.9918C17.525 12.7719 18.7912 12.4679 20.1589 12.0656C22.6762 11.3252 25.875 10.1589 28.5 8.36187V27.6381C25.875 25.8411 22.6762 24.6749 20.1589 23.9345C18.7912 23.5322 17.525 23.2281 16.5 23.0082V12.9918ZM7.5 13.5H13.5V22.5H7.5V13.5Z" fill="white"/>
</svg>
